<?xml version="1.0" encoding="UTF-8" standalone="no"?>
<!DOCTYPE svg PUBLIC "-//W3C//DTD SVG 1.1//EN" "http://www.w3.org/Graphics/SVG/1.1/DTD/svg11.dtd">
<svg width="100%" height="100%" viewBox="0 0 800 200" version="1.1" xmlns="http://www.w3.org/2000/svg" xmlns:xlink="http://www.w3.org/1999/xlink" xml:space="preserve" xmlns:serif="http://www.serif.com/" style="fill-rule:evenodd;clip-rule:evenodd;stroke-linejoin:round;stroke-miterlimit:2;">
    <g id="Logo-Samaxan-Vecteur-2021.afpub" serif:id="Logo Samaxan-Vecteur-2021.afpub" transform="matrix(0.350241,0,0,0.350241,400,-248.906)">
        <g transform="matrix(1,0,0,1,-1148.25,-1281.71)">
            <g>
                <g id="Plan-de-travail1" serif:id="Plan de travail1" transform="matrix(1,0,0,1,-147.271,-140.607)">
                    <rect x="147.271" y="140.607" width="2296.49" height="2563.41" style="fill:none;"/>
                    <g transform="matrix(1,0,0,1,0.271321,0.606874)">
                        <g>
                            <g transform="matrix(0.246705,-0.000068,0.000065,0.236231,-30.622946,60.236485)">
                                <g transform="matrix(3.66243,0,0,3.6635,643.78,7073.12)">
                                    <path d="M480.609,589.102C477.158,589.102 194.161,589.395 190.241,589.755C117.762,596.523 101.43,653.69 102.875,683.502C105.571,739.177 148.146,760.291 184.623,764.24C224.475,768.551 289.548,764.191 328.073,767.332C357.692,769.74 394.535,776.45 415.809,783.072C430.653,787.684 445.697,798.665 455.714,807.062C464.222,814.2 470.654,824.021 475.898,833.47C481.137,842.91 484.649,853.326 487.204,863.79C489.982,875.2 492.583,901.92 492.583,901.92C492.583,901.92 499.213,854.272 498.576,833.987C498.003,815.78 493.522,794.891 488.776,780.214C484.772,767.858 477.872,755.6 470.079,745.984C462.413,736.515 453.113,727.611 442.006,722.491C427.309,715.714 402.669,707.025 381.879,705.318C343.765,702.178 244.333,704.84 213.284,703.67C207.102,703.426 199.809,701.778 195.544,698.267C191.268,694.766 187.908,687.92 187.673,682.625C187.427,677.329 190.888,670.327 194.101,666.495C197.196,662.799 202.126,660.409 206.927,659.668C214.239,658.537 237.977,659.707 237.977,659.707C237.977,659.707 379.478,663.364 416.935,658.927C434.376,656.86 452.113,644.709 462.721,633.074C473.336,621.43 491.171,589.112 480.609,589.102" style="fill:rgb(0,157,200);"/>
                                </g>
                                <g transform="matrix(3.66243,0,0,3.6635,643.78,7596.24)">
                                    <path d="M78.961,830.515C82.414,830.525 365.411,830.232 369.338,829.862C441.817,823.094 458.149,765.936 456.704,736.115C454.002,680.44 411.433,659.336 374.956,655.387C335.104,651.066 270.031,655.426 231.498,652.295C201.878,649.877 165.038,643.177 143.763,636.555C128.917,631.933 113.873,620.962 103.855,612.565C95.357,605.417 88.925,595.596 83.673,586.147C78.436,576.706 74.922,566.311 72.375,555.837C69.591,544.427 66.997,517.706 66.997,517.706C66.997,517.706 60.366,565.345 61.003,585.63C61.57,603.837 66.047,624.745 70.802,639.413C74.8,651.759 81.697,664.017 89.491,673.633C97.159,683.102 106.465,692.015 117.563,697.126C132.274,703.913 156.914,712.592 177.69,714.299C215.818,717.439 315.235,714.787 346.295,715.957C352.477,716.191 359.77,717.849 364.035,721.35C368.305,724.861 371.662,731.707 371.907,736.992C372.143,742.297 368.684,749.299 365.481,753.122C362.377,756.818 357.452,759.208 352.653,759.949C345.34,761.08 321.596,759.91 321.596,759.91C321.596,759.91 180.092,756.253 142.635,760.69C125.197,762.757 107.469,774.908 96.851,786.543C86.243,798.187 68.398,830.505 78.961,830.515" style="fill:rgb(11,24,49);"/>
                                </g>
                                <g transform="matrix(3.66243,0,0,3.6635,643.78,7693.49)">
                                    <path d="M794.84,756.175C799.935,756.185 804.399,754.302 808.232,750.509C812.056,746.93 813.973,742.512 813.979,737.256L814.043,680.079L602.805,679.845C597.502,679.835 593.037,681.727 589.423,685.511C585.59,689.09 583.673,693.508 583.667,698.774L583.624,737.002C583.618,742.259 585.525,746.686 589.35,750.265C592.956,754.068 597.416,755.96 602.72,755.97L794.84,756.175ZM583.56,793.847C572.949,793.837 563.918,790.141 556.501,782.759C549.07,775.387 545.363,766.424 545.375,755.902L545.46,679.777C545.472,669.245 549.199,660.302 556.647,652.939C564.08,645.586 573.12,641.909 583.73,641.919L814.086,642.173L814.15,584.996C814.156,579.74 812.249,575.205 808.433,571.411C804.609,567.832 800.149,566.038 795.053,566.028L545.588,565.755C545.6,555.223 549.328,546.28 556.775,538.917C564.209,531.34 573.248,527.566 583.859,527.576L814.214,527.829C824.835,527.839 833.856,531.642 841.283,539.229C848.711,546.602 852.411,555.564 852.4,566.096L852.186,756.243C852.174,766.766 848.454,775.718 841.009,783.071C833.564,790.444 824.536,794.12 813.915,794.101L583.56,793.847" style="fill:rgb(11,24,49);fill-rule:nonzero;"/>
                                </g>
                                <g transform="matrix(3.66243,0,0,3.6635,643.78,7696.27)">
                                    <path d="M928.924,793.467C918.31,793.457 909.28,789.761 901.854,782.378C894.437,775.006 890.729,766.053 890.739,755.521L890.955,565.374C890.965,554.842 894.693,545.899 902.129,538.537C909.576,530.969 918.615,527.185 929.229,527.195L1159.58,527.448C1170.2,527.458 1179.22,531.262 1186.65,538.849C1194.07,546.221 1197.78,555.183 1197.77,565.716L1197.55,755.862C1197.54,766.385 1193.81,775.337 1186.38,782.69C1178.93,790.063 1169.9,793.74 1159.28,793.73L1159.51,584.615C1159.52,579.359 1157.61,574.824 1153.8,571.031C1149.97,567.452 1145.52,565.657 1140.42,565.648L1082.76,565.589C1077.44,565.579 1072.87,567.364 1069.05,570.943C1065.43,574.727 1063.62,579.252 1063.62,584.508L1063.38,793.623L1024.83,793.574L1025.06,584.469C1025.07,579.213 1023.27,574.678 1019.66,570.884C1015.85,567.305 1011.28,565.511 1005.97,565.501L948.302,565.443C942.99,565.433 938.534,567.218 934.915,570.797C931.088,574.571 929.17,579.105 929.16,584.362L928.924,793.467" style="fill:rgb(11,24,49);fill-rule:nonzero;"/>
                                </g>
                                <g transform="matrix(3.66243,0,0,3.6635,643.78,7699.06)">
                                    <path d="M1485.57,755.414C1490.67,755.423 1495.13,753.541 1498.95,749.748C1502.79,746.169 1504.71,741.751 1504.71,736.494L1504.78,679.318L1293.54,679.084C1288.23,679.074 1283.77,680.966 1280.15,684.759C1276.32,688.329 1274.4,692.756 1274.39,698.013L1274.35,736.241C1274.35,741.497 1276.25,745.925 1280.08,749.504C1283.69,753.307 1288.15,755.199 1293.45,755.209L1485.57,755.414ZM1274.29,793.096C1263.67,793.076 1254.65,789.38 1247.23,781.998C1239.8,774.625 1236.09,765.673 1236.1,755.14L1236.19,679.015C1236.2,668.493 1239.93,659.55 1247.36,652.178C1254.81,644.825 1263.84,641.148 1274.46,641.158L1504.82,641.411L1504.88,584.235C1504.88,578.978 1502.98,574.444 1499.16,570.65C1495.34,567.071 1490.88,565.277 1485.78,565.267L1236.32,564.994C1236.33,554.462 1240.05,545.519 1247.49,538.156C1254.94,530.588 1263.97,526.805 1274.59,526.814L1504.94,527.068C1515.57,527.078 1524.59,530.881 1532.01,538.468C1539.43,545.85 1543.14,554.803 1543.13,565.335L1542.91,755.482C1542.9,766.004 1539.18,774.957 1531.74,782.31C1524.29,789.682 1515.26,793.359 1504.65,793.349L1274.29,793.096" style="fill:rgb(11,24,49);fill-rule:nonzero;"/>
                                </g>
                                <g transform="matrix(3.66243,0,0,3.6635,643.78,7701.77)">
                                    <path d="M1564.75,792.668L1684.84,640.876L1595.03,526.425L1654.99,526.494L1715.37,602.687L1775.42,526.63L1835.88,526.698L1745.31,640.944L1865.56,792.999L1805.1,792.941L1715.28,678.812L1624.71,792.736L1564.75,792.668" style="fill:rgb(0,157,200);fill-rule:nonzero;"/>
                                </g>
                                <g transform="matrix(3.66243,0,0,3.6635,643.78,7704.27)">
                                    <path d="M2131.78,754.712C2136.87,754.712 2141.34,752.83 2145.18,749.036C2148.99,745.457 2150.91,741.04 2150.92,735.783L2150.98,678.607L1939.75,678.373C1934.44,678.363 1929.98,680.255 1926.36,684.048C1922.54,687.618 1920.62,692.045 1920.61,697.301L1920.57,735.53C1920.56,740.786 1922.47,745.214 1926.29,748.793C1929.89,752.596 1934.36,754.488 1939.66,754.498L2131.78,754.712ZM1920.5,792.385C1909.89,792.365 1900.86,788.669 1893.44,781.287C1886.01,773.924 1882.3,764.962 1882.31,754.429L1882.4,678.304C1882.41,667.782 1886.14,658.839 1893.59,651.476C1901.02,644.113 1910.06,640.437 1920.68,640.447L2151.03,640.71L2151.09,583.533C2151.1,578.267 2149.19,573.732 2145.37,569.949C2141.55,566.36 2137.09,564.566 2132,564.566L1882.53,564.283C1882.54,553.76 1886.27,544.808 1893.71,537.445C1901.15,529.877 1910.19,526.093 1920.8,526.103L2151.16,526.357C2161.77,526.366 2170.79,530.17 2178.23,537.767C2185.65,545.139 2189.35,554.092 2189.34,564.624L2189.13,754.771C2189.12,765.293 2185.4,774.255 2177.95,781.608C2170.51,788.971 2161.48,792.648 2150.85,792.638L1920.5,792.385" style="fill:rgb(11,24,49);fill-rule:nonzero;"/>
                                </g>
                                <g transform="matrix(3.66243,0,0,3.6635,643.78,7706.81)">
                                    <path d="M2265.87,792.072C2255.26,792.062 2246.23,788.366 2238.8,780.974C2231.37,773.611 2227.67,764.649 2227.69,754.117L2227.94,525.752L2457.97,526.005C2468.58,526.015 2477.61,529.818 2485.04,537.405C2492.67,544.778 2496.49,553.74 2496.48,564.272L2496.26,754.419C2496.25,764.942 2492.42,773.894 2484.76,781.247C2477.33,788.62 2468.29,792.296 2457.66,792.277L2457.9,583.172C2457.91,577.916 2456.11,573.381 2452.5,569.587C2448.68,566.008 2444.12,564.214 2438.81,564.204L2285.24,564.038C2279.94,564.029 2275.47,565.813 2271.86,569.392C2268.03,573.176 2266.11,577.701 2266.1,582.967L2265.87,792.072" style="fill:rgb(0,157,200);fill-rule:nonzero;"/>
                                </g>
                            </g>
                        </g>
                    </g>
                </g>
            </g>
        </g>
    </g>
</svg>
