<?xml version="1.0" encoding="UTF-8" standalone="no"?>
<!DOCTYPE svg PUBLIC "-//W3C//DTD SVG 1.1//EN" "http://www.w3.org/Graphics/SVG/1.1/DTD/svg11.dtd">
<svg width="100%" height="100%" viewBox="0 0 1024 1024" version="1.1" xmlns="http://www.w3.org/2000/svg" xmlns:xlink="http://www.w3.org/1999/xlink" xml:space="preserve" xmlns:serif="http://www.serif.com/" style="fill-rule:evenodd;clip-rule:evenodd;stroke-linejoin:round;stroke-miterlimit:2;">
    <g transform="matrix(2.21582,0,0,2.21582,4.7119,-622.499)">
        <g transform="matrix(0.903539,-0.000249554,0.000239028,0.865431,-24.0481,-164.009)">
            <path d="M480.609,589.102C477.158,589.102 194.161,589.395 190.241,589.755C117.762,596.523 101.43,653.69 102.875,683.502C105.571,739.177 148.146,760.291 184.623,764.24C224.475,768.551 289.548,764.191 328.073,767.332C357.692,769.74 394.535,776.45 415.809,783.072C430.653,787.684 445.697,798.665 455.714,807.062C464.222,814.2 470.654,824.021 475.898,833.47C481.137,842.91 484.649,853.326 487.204,863.79C489.982,875.2 492.583,901.92 492.583,901.92C492.583,901.92 499.213,854.272 498.576,833.987C498.003,815.78 493.522,794.891 488.776,780.214C484.772,767.858 477.872,755.6 470.079,745.984C462.413,736.515 453.113,727.611 442.006,722.491C427.309,715.714 402.669,707.025 381.879,705.318C343.765,702.178 244.333,704.84 213.284,703.67C207.102,703.426 199.809,701.778 195.544,698.267C191.268,694.766 187.908,687.92 187.673,682.625C187.427,677.329 190.888,670.327 194.101,666.495C197.196,662.799 202.126,660.409 206.927,659.668C214.239,658.537 237.977,659.707 237.977,659.707C237.977,659.707 379.478,663.364 416.935,658.927C434.376,656.86 452.113,644.709 462.721,633.074C473.336,621.43 491.171,589.112 480.609,589.102" style="fill:rgb(0,157,200);"/>
        </g>
        <g transform="matrix(0.903539,-0.000249554,0.000239028,0.865431,-24.014,-40.433)">
            <path d="M78.961,830.515C82.414,830.525 365.411,830.232 369.338,829.862C441.817,823.094 458.149,765.936 456.704,736.115C454.002,680.44 411.433,659.336 374.956,655.387C335.104,651.066 270.031,655.426 231.498,652.295C201.878,649.877 165.038,643.177 143.763,636.555C128.917,631.933 113.873,620.962 103.855,612.565C95.357,605.417 88.925,595.596 83.673,586.147C78.436,576.706 74.922,566.311 72.375,555.837C69.591,544.427 66.997,517.706 66.997,517.706C66.997,517.706 60.366,565.345 61.003,585.63C61.57,603.837 66.047,624.745 70.802,639.413C74.8,651.759 81.697,664.017 89.491,673.633C97.159,683.102 106.465,692.015 117.563,697.126C132.274,703.913 156.914,712.592 177.69,714.299C215.818,717.439 315.235,714.787 346.295,715.957C352.477,716.191 359.77,717.849 364.035,721.35C368.305,724.861 371.662,731.707 371.907,736.992C372.143,742.297 368.684,749.299 365.481,753.122C362.377,756.818 357.452,759.208 352.653,759.949C345.34,761.08 321.596,759.91 321.596,759.91C321.596,759.91 180.092,756.253 142.635,760.69C125.197,762.757 107.469,774.908 96.851,786.543C86.243,798.187 68.398,830.505 78.961,830.515" style="fill:rgb(11,24,49);"/>
        </g>
    </g>
</svg>
